<svg width="256" height="256" viewBox="0 0 256 256" fill="none" xmlns="http://www.w3.org/2000/svg">
<rect width="256" height="256" fill="white"/>
<path fill-rule="evenodd" clip-rule="evenodd" d="M185.666 119.307C184.23 108.954 178.53 101.4 170.053 98.8316C167.006 97.908 163.785 97.7101 160.647 98.2534C157.51 98.7968 154.542 100.067 151.982 101.961C149.393 96.6343 146.071 92.0104 142.07 88.1585C128.435 75.0397 109.795 71.4705 92.1931 78.6241C77.1113 84.7574 65.7369 101.698 65.7369 118.038C65.7369 118.733 65.7522 119.433 65.7827 120.128C57.4324 122.929 44 130.488 44 150.118C44 150.871 44.0229 151.609 44.0649 152.327C45.0118 168.946 59.6469 181.981 77.3824 182H132H178.114C194.494 182 212 173.685 212 150.359C212 134.527 202.68 123.59 185.666 119.307Z" fill="url(#paint0_linear_8_23)"/>
<path d="M178.114 182H132L151.982 161L178.114 182Z" fill="white" fill-opacity="0.2"/>
<path d="M170.053 98.8316C178.53 101.4 184.23 108.954 185.666 119.307C202.68 123.59 212 134.527 212 150.359C212 173.685 194.494 182 178.114 182L151.982 161V101.961C154.542 100.067 157.51 98.7968 160.647 98.2534C163.785 97.7101 167.006 97.908 170.053 98.8316Z" fill="url(#paint1_linear_8_23)"/>
<path d="M44 150.118C44 130.488 57.4324 122.929 65.7827 120.128L115 135L77.3824 182C59.6469 181.981 45.0118 168.946 44.0649 152.327C44.0229 151.609 44 150.871 44 150.118Z" fill="black" fill-opacity="0.2"/>
<path d="M44 150.118C44 130.488 57.4324 122.929 65.7827 120.128L115 135L77.3824 182C59.6469 181.981 45.0118 168.946 44.0649 152.327C44.0229 151.609 44 150.871 44 150.118Z" stroke="black"/>
<path d="M178.983 179.492L179.68 180.051L178.114 182C194.494 182 212 173.685 212 150.359C212 134.527 202.68 123.59 185.666 119.307C184.23 108.954 178.53 101.4 170.053 98.8316L178.983 179.492ZM178.983 179.492C186.511 179.349 194.021 177.341 199.665 172.953C205.428 168.472 209.5 161.318 209.5 150.359C209.5 142.958 207.333 136.861 203.308 132.12C199.264 127.358 193.185 123.778 185.056 121.731L183.421 121.319L183.19 119.65C181.856 110.03 176.665 103.447 169.329 101.224L169.328 101.224C166.654 100.414 163.827 100.24 161.074 100.717C158.725 101.124 156.485 101.994 154.482 103.274V159.802L178.983 179.492ZM148.881 101.379C146.553 97.0058 143.691 93.1889 140.336 89.9596C127.416 77.529 109.825 74.1569 93.1349 80.94L148.881 101.379ZM148.881 101.379L114.38 132.201L68.2374 118.258C68.2371 118.185 68.2369 118.111 68.2369 118.038C68.2369 102.711 78.9989 86.6889 93.1344 80.9402L148.881 101.379ZM53.5835 130.522C57.3568 126.499 62.0162 124.126 65.8359 122.756L110.738 136.324L76.1988 179.478C60.1984 178.898 47.404 166.983 46.5609 152.185L46.5606 152.181C46.5214 151.509 46.5 150.82 46.5 150.118C46.5 140.939 49.6161 134.753 53.5835 130.522ZM82.5855 179.5L116.821 136.725L149.482 107.547V160.001L130.928 179.5H82.5855ZM137.83 179.5L152.208 164.389L171.012 179.5H137.83Z" stroke="black" stroke-width="5"/>
<circle cx="115" cy="135" r="6.5" fill="#D9D9D9" stroke="black" stroke-width="5"/>
<circle cx="152" cy="161" r="6.5" fill="#D9D9D9" stroke="black" stroke-width="5"/>
<defs>
<linearGradient id="paint0_linear_8_23" x1="127.907" y1="198.257" x2="127.907" y2="51.9298" gradientUnits="userSpaceOnUse">
<stop stop-color="#922828"/>
<stop offset="0.471875" stop-color="#B34545"/>
<stop offset="1" stop-color="#BA6262"/>
</linearGradient>
<linearGradient id="paint1_linear_8_23" x1="181.958" y1="194.769" x2="181.958" y2="79.8328" gradientUnits="userSpaceOnUse">
<stop stop-color="#911D1D"/>
<stop offset="0.471875" stop-color="#B33939"/>
<stop offset="1" stop-color="#BA5656"/>
</linearGradient>
</defs>
</svg>
