<svg width="168" height="107" viewBox="0 0 168 107" fill="none" xmlns="http://www.w3.org/2000/svg">
<path fill-rule="evenodd" clip-rule="evenodd" d="M141.666 44.3065C140.23 33.9544 134.53 26.3995 126.053 23.8316C123.006 22.908 119.785 22.7101 116.647 23.2534C113.51 23.7968 110.542 25.0665 107.982 26.9613C105.393 21.6343 102.071 17.0104 98.07 13.1585C84.4353 0.0396891 65.7949 -3.52948 48.1931 3.62414C33.1113 9.75745 21.7369 26.6976 21.7369 43.0378C21.7369 43.7333 21.7522 44.4326 21.7827 45.1281C13.4324 47.9292 0 55.4879 0 75.1183C0 75.8711 0.0229098 76.6086 0.0649098 77.327C1.01182 93.9462 15.6469 106.981 33.3824 107H88H134.114C150.494 107 168 98.6847 168 75.359C168 59.5271 158.68 48.5903 141.666 44.3065Z" fill="url(#paint0_linear_12_49)"/>
<path d="M134.114 107H88L107.982 86L134.114 107Z" fill="white" fill-opacity="0.2"/>
<path d="M126.053 23.8316C134.53 26.3995 140.23 33.9544 141.666 44.3065C158.68 48.5903 168 59.5271 168 75.359C168 98.6847 150.494 107 134.114 107L107.982 86V26.9613C110.542 25.0665 113.51 23.7968 116.647 23.2534C119.785 22.7101 123.006 22.908 126.053 23.8316Z" fill="url(#paint1_linear_12_49)"/>
<path d="M0 75.1183C0 55.4879 13.4324 47.9292 21.7827 45.1281L71 60L33.3824 107C15.6469 106.981 1.01182 93.9462 0.0649098 77.327C0.0229098 76.6086 0 75.8711 0 75.1183Z" fill="black" fill-opacity="0.2"/>
<path d="M0 75.1183C0 55.4879 13.4324 47.9292 21.7827 45.1281L71 60L33.3824 107C15.6469 106.981 1.01182 93.9462 0.0649098 77.327C0.0229098 76.6086 0 75.8711 0 75.1183Z" stroke="black"/>
<path d="M134.983 104.492L135.68 105.051L134.114 107C150.494 107 168 98.6847 168 75.359C168 59.5271 158.68 48.5903 141.666 44.3065C140.23 33.9544 134.53 26.3995 126.053 23.8316L134.983 104.492ZM134.983 104.492C142.511 104.349 150.021 102.341 155.665 97.953C161.428 93.4719 165.5 86.3175 165.5 75.359C165.5 67.9583 163.333 61.8614 159.308 57.1203C155.264 52.3585 149.185 48.7776 141.056 46.7308L139.421 46.3193L139.19 44.6499C137.856 35.0303 132.665 28.4467 125.329 26.2242L125.328 26.2241C122.654 25.4136 119.827 25.2399 117.074 25.7168C114.725 26.1236 112.485 26.9942 110.482 28.2737V84.8018L134.983 104.492ZM104.881 26.3791C102.553 22.0058 99.6908 18.1889 96.3362 14.9596C83.4164 2.52898 65.8254 -0.843091 49.1349 5.93997L104.881 26.3791ZM104.881 26.3791L70.3804 57.2012L24.2374 43.2582C24.2371 43.1847 24.2369 43.1112 24.2369 43.0378C24.2369 27.7105 34.9989 11.6889 49.1344 5.94017L104.881 26.3791ZM9.5835 55.5224C13.3568 51.499 18.0162 49.1265 21.8359 47.7558L66.7383 61.3239L32.1988 104.478C16.1984 103.898 3.40403 91.9833 2.56086 77.1848L2.56065 77.1811C2.52137 76.5093 2.5 75.8204 2.5 75.1183C2.5 65.9386 5.61609 59.7527 9.5835 55.5224ZM38.5855 104.5L72.8213 61.7252L105.482 32.5471V85.0007L86.9279 104.5H38.5855ZM93.8297 104.5L108.208 89.389L127.012 104.5H93.8297Z" stroke="black" stroke-width="5"/>
<circle cx="71" cy="60" r="6.5" fill="#D9D9D9" stroke="black" stroke-width="5"/>
<circle cx="108" cy="86" r="6.5" fill="#D9D9D9" stroke="black" stroke-width="5"/>
<defs>
<linearGradient id="paint0_linear_12_49" x1="83.9068" y1="123.257" x2="83.9068" y2="-23.0702" gradientUnits="userSpaceOnUse">
<stop stop-color="#922828"/>
<stop offset="0.471875" stop-color="#B34545"/>
<stop offset="1" stop-color="#BA6262"/>
</linearGradient>
<linearGradient id="paint1_linear_12_49" x1="137.958" y1="119.769" x2="137.958" y2="4.8328" gradientUnits="userSpaceOnUse">
<stop stop-color="#911D1D"/>
<stop offset="0.471875" stop-color="#B33939"/>
<stop offset="1" stop-color="#BA5656"/>
</linearGradient>
</defs>
</svg>
